PathFileType	4	(X/Y/Z)	pose_F01_0-96.trc
DataRate	CameraRate	NumFrames	NumMarkers	Units	OrigDataRate	OrigDataStartFrame	OrigNumFrames
30	30	10	21	m	30	48	96
Frame#	Time	CHip			RHip			RKnee			RAnkle			RBigToe			RSmallToe			RHeel			LHip			LKnee			LAnkle			LBigToe			LSmallToe			LHeel			Neck			Nose			RShoulder			RElbow			RWrist			LShoulder			LElbow			LWrist			
		X1	Y1	Z1	X2	Y2	Z2	X3	Y3	Z3	X4	Y4	Z4	X5	Y5	Z5	X6	Y6	Z6	X7	Y7	Z7	X8	Y8	Z8	X9	Y9	Z9	X10	Y10	Z10	X11	Y11	Z11	X12	Y12	Z12	X13	Y13	Z13	X14	Y14	Z14	X15	Y15	Z15	X16	Y16	Z16	X17	Y17	Z17	X18	Y18	Z18	X19	Y19	Z19	X20	Y20	Z20	X21	Y21	Z21	
48	1.6	-0.2450571232904528	1.878549947864018	-0.4930336264429937	-0.25680442686350047	1.8750430086984622	-0.42660903152267976	-0.2593104379247554	1.7336289490755703	-0.3919542825068218													-0.22525399249845968	1.8804858348101843	-0.5539911107856003	-0.2201098085409276	1.7443366512197636	-0.5356486359872612	-0.2095132025615538	1.5993808193126542	-0.5238529767828766	-0.21671527363868717	1.5619282285280027	-0.5950601482268778	-0.20877698161413671	1.5756350675922197	-0.604728471954661	-0.21366845129921083	1.5848065829446911	-0.49961038185001116	-0.23731871256249046	2.0490241828054456	-0.4991791323908723	-0.2490803701875396	2.1183179447983123	-0.5534819216360073	-0.2598855970111124	2.047017389646057	-0.405463572349384	-0.263421042401059	1.952434264429854	-0.37588282693627445	-0.27186709670827225	1.8721403882094538	-0.36775694728707015	-0.2158757440880447	2.052141222256702	-0.5893249812184498	-1.4744420583889086	1.8749055469654472	0.7336806269137817	-0.20102513594953034	1.8973151831689588	-0.6268933759519933
49	1.6333333333333333	-0.24307872144836948	1.8784070704711886	-0.49527601621441963	-0.2546805970509594	1.8762263422590186	-0.4288492944418663	-0.25957354176184466	1.7354164135522803	-0.39194234969886566													-0.22411217814882026	1.8808381337398894	-0.5593203106478865	-0.22007220089257515	1.743650883448102	-0.5356569135927132	-0.2085863173356596	1.599833202529236	-0.520541763181771	-0.21558874281981208	1.5622775131670463	-0.600477726790207	-0.2065554743594597	1.5748024561585476	-0.6072776334387295	-0.21388083834902588	1.585747303609671	-0.49953618071305955	-0.2372752381817895	2.0490346836462816	-0.4992579389287636	-0.2490640285518108	2.118369695249063	-0.5534707781078934	-0.25801753049548876	2.047051001506925	-0.40758514846342553	-0.2652636196781068	1.9541651891610825	-0.3741987559479784	-0.27101254539516006	1.874948972366931	-0.36506822791770505	-0.21584466923228077	2.05099827812567	-0.5888927837106209	-1.4744420583889086	1.8749055469654472	0.7336806269137817	-0.20102513594953034	1.8973151831689588	-0.6268933759519933
50	1.6666666666666667	-0.24298089478686952	1.8769998345113585	-0.4949703788993079	-0.25533121396069036	1.872986310817387	-0.42310310742817103	-0.2598940806578892	1.73608346772009	-0.3894908464637955													-0.22387080535580306	1.8803842274349871	-0.5591652205790776	-0.21990400691145395	1.745547829390621	-0.5360403767627892	-0.20917491997589138	1.6005580144591856	-0.5243305158177417	-0.2186723511641532	1.563579861995071	-0.5934996927303157	-0.2087351198451951	1.5777278531583452	-0.605208838797157	-0.21370800850987243	1.5848809403613215	-0.499565024854937	-0.23729698723493287	2.0502399369465505	-0.4997682793123025	-0.2490924534114328	2.118320311935307	-0.5534917101828808	-0.2579952092649228	2.047122521899208	-0.4075875324027976	-0.2655653028787301	1.9593056060455656	-0.3758813865723648	-0.2707824322580691	1.8861043626189546	-0.3643195769610111	-0.21585685411523176	2.0521281084320497	-0.5893926680077021	-1.4744420583889086	1.8749055469654472	0.7336806269137817	-0.20102513594953034	1.8973151831689588	-0.6268933759519933
51	1.7	-0.24285209026654317	1.8782854590705669	-0.49516518075471405	-0.255298599152017	1.876021484573609	-0.42351653463661326	-0.2602146195539337	1.7367505218878996	-0.38703934322872535													-0.22388785473137654	1.880339960877041	-0.5592377874274933	-0.22210090865678883	1.7439326006128133	-0.5336289747621443	-0.21055120743464106	1.5997672758080528	-0.5271520350412684	-0.21951055978078643	1.5632566492812068	-0.5966378700568544	-0.2084375564623003	1.5761909764469861	-0.6056104779231695	-0.213535178670719	1.584014577112972	-0.49959386899681446	-0.2373042756515028	2.0502528842891503	-0.4997710290202445	-0.24908546021640426	2.1184376213488982	-0.5535300413450882	-0.2579912151902982	2.047093715280641	-0.40760107353655606	-0.26528570416119684	1.9581888992797485	-0.37504620945581285	-0.2732956156118153	1.8794200059850563	-0.3640297948930867	-0.2158670840728844	2.0521320166300914	-0.589413833044772	-1.4744420583889086	1.8749055469654472	0.7336806269137817	-0.20102513594953034	1.8973151831689588	-0.6268933759519933
52	1.7333333333333334	-0.24295415661235892	1.8770972689031242	-0.4950792229027689	-0.2545606526525258	1.8751361343490118	-0.4286224191163178	-0.25950383129340127	1.737613381541984	-0.39231092313931876													-0.22409811901694848	1.8808053372313482	-0.5593673164572726	-0.22100515495579776	1.7432598425535708	-0.5389740845180166	-0.21043778949306205	1.5991495242457898	-0.5271738199227345	-0.21656255513992334	1.5613580405363805	-0.5951036316876995	-0.20634021953698747	1.573656364752305	-0.6071772349735	-0.21336234883156555	1.5831482138646227	-0.4996227131386919	-0.2373116757657855	2.0502694232239214	-0.4997655066202559	-0.24909343714261217	2.1197535224006874	-0.5541308364071056	-0.2580028159047072	2.0471157180116153	-0.4075635512661795	-0.26521720704097707	1.957046962909429	-0.37466691579699735	-0.2730703627796733	1.8807897398425315	-0.3642377735942488	-0.21587711729823575	2.052166198692075	-0.5894162322223028	-1.4744420583889086	1.8749055469654472	0.7336806269137817	-0.20102513594953034	1.8973151831689588	-0.6268933759519933
53	1.7666666666666666	-0.24386184122099197	1.874721468297043	-0.49797560990884987	-0.2574728753357423	1.8735349846464076	-0.42962180611648604	-0.25953060892552526	1.7372906459609874	-0.39231725639360127													-0.22394133881938671	1.8775774650098378	-0.5590632067049944	-0.22076099383209455	1.7413107165851647	-0.5390575542107666	-0.2101820296558184	1.5979563983049052	-0.5275028226162579	-0.21641280585575323	1.5630566305632942	-0.5955835618195524	-0.20755237398138526	1.577021053492267	-0.6021141580103058	-0.21343120979226807	1.58384781414606	-0.4997916281195279	-0.2373388401624468	2.050265829531946	-0.49975711810813617	-0.2490709110658222	2.121156419292283	-0.5546676444824026	-0.2598437394141681	2.0470678526051267	-0.4055996455979259	-0.26541219597890475	1.9593174206871564	-0.3755986424526139	-0.2735023771306319	1.8834916656485872	-0.36494463947371375	-0.21589512255186397	2.052178784085385	-0.5893538391833857	-1.4744420583889086	1.8749055469654472	0.7336806269137817	-0.20102513594953034	1.8973151831689588	-0.6268933759519933
54	1.8	-0.2437203796754254	1.875939403070684	-0.49815761414957105	-0.25831231991984016	1.8747089156939813	-0.4330375938080808	-0.2595573865576492	1.7369679103799909	-0.3923235896478838													-0.22382349473375765	1.87900764404721	-0.5592095346971994	-0.22084051394824722	1.7415841749497754	-0.5391229562909223	-0.20949264397054984	1.5994660056004946	-0.5238932068102418	-0.21640805389901793	1.563394671470281	-0.5955904134373098	-0.20758658931824892	1.5771789363625495	-0.6020677270905548	-0.21359597165457386	1.584533514051676	-0.4996471715153909	-0.23736044638753226	2.050291530780825	-0.4998671207619485	-0.2489823014660893	2.123709410704446	-0.555080976056965	-0.2580250037212657	2.047155440467828	-0.40778406756222263	-0.266236745539077	1.958013703231785	-0.3777796097580064	-0.2737092559014616	1.8828110278980401	-0.36748908038200134	-0.21583457297408584	2.0533724591652738	-0.5893186649234711	-1.4744420583889086	1.8749055469654472	0.7336806269137817	-0.20102513594953034	1.8973151831689588	-0.6268933759519933
55	1.8333333333333333	-0.24410988428200323	1.878443003957949	-0.4984935758445479	-0.25977068543899895	1.8770000104413447	-0.436650548479323	-0.2595841641897732	1.7366451747989942	-0.3923299229021663													-0.22426603441495116	1.8824368759329198	-0.5597208074135027	-0.2217870078129515	1.7417737289160924	-0.5422238739088235	-0.20975531870271602	1.5989847028946733	-0.525092263451114	-0.2166720374000317	1.5617722269834706	-0.5951528944968106	-0.20666814346568643	1.5755301146160834	-0.6068728611272023	-0.21354330635851937	1.5842915405254265	-0.4996751137711265	-0.23736042955217737	2.050315862449827	-0.49990825588309923	-0.2479617955996637	2.1247863807429948	-0.5519426356563264	-0.2580662960903967	2.0471897947941895	-0.40780782450446157	-0.268271029690435	1.9588330110828378	-0.37632276695687894	-0.2848548028715018	1.8780891822818289	-0.3595804987309238	-0.21591273731081667	2.0522091368209106	-0.5893936857722311	-1.4744420583889086	1.8749055469654472	0.7336806269137817	-0.20102513594953034	1.8973151831689588	-0.6268933759519933
56	1.8666666666666667	-0.2450233433224377	1.8810867860660545	-0.5020379415738945	-0.2619585314610184	1.877856482115616	-0.4433962126105412	-0.2596109418218972	1.7363224392179974	-0.39233625615644885													-0.2250384077504589	1.8837880519142787	-0.5629731917539139	-0.2214904986589632	1.742181270167422	-0.5426995902700852	-0.21001799343488223	1.598503400188852	-0.5262913200919862	-0.2192788468831531	1.5620001868653626	-0.5966546101141782	-0.20828052434305774	1.575328477744192	-0.6056296837718897	-0.2134906410624649	1.584049566999177	-0.49970305602686205	-0.23736805971973185	2.0503530126546896	-0.4999503640802704	-0.24798552260238363	2.1247958292711	-0.5519155625469675	-0.2579761475441739	2.049592389148644	-0.40837155254024715	-0.2709585704575428	1.965533249555589	-0.3784335201083581	-0.2934283358868192	1.885621051570042	-0.37253164546980116	-0.21584254022468813	2.0533326656494384	-0.5893510096691278	-1.4820404657413846	1.8772917370821267	0.7438014908517071	-0.19944095608855913	1.8960432181309954	-0.6296914808179077
57	1.9	-0.24509384103651305	1.8785784183097964	-0.501703491082564	-0.2608679230198482	1.8770924997485288	-0.43997640921852593	-0.25963771945402114	1.735999703637001	-0.39234258941073136													-0.22612989796609653	1.8827011139191083	-0.5660884119823091	-0.22198752694768614	1.7398398997056772	-0.5421274256319117	-0.2102806681670484	1.5980220974830308	-0.5274903767328585	-0.2164370895435435	1.563229241731845	-0.5955575174728228	-0.20830755685828115	1.5757992701445656	-0.6055286692649091	-0.2134379757664104	1.5838075934729274	-0.4997309982825976	-0.23836091157832184	2.0505478888355153	-0.5029398629427451	-0.24798811971599677	2.126074928942684	-0.5524796732963783	-0.260871337596367	2.0496547675380175	-0.40933026563458824	-0.2762452547272819	1.9641765959440165	-0.37769234392735895	-0.29983032615692107	1.8866103560376128	-0.37560660936395585	-0.2167060609550061	2.053809124219744	-0.5923660236319984	-0.21036292950285762	1.975777176619237	-0.6178341117595715	-0.19980986435431328	1.9030556608205829	-0.6418556020096227
